<?xml version="1.0" encoding="utf-8"?>
<!-- Generator: Adobe Illustrator 15.1.0, SVG Export Plug-In . SVG Version: 6.00 Build 0)  -->
<!DOCTYPE svg PUBLIC "-//W3C//DTD SVG 1.1//EN" "http://www.w3.org/Graphics/SVG/1.1/DTD/svg11.dtd">
<svg version="1.1" id="Layer_1" xmlns="http://www.w3.org/2000/svg" xmlns:xlink="http://www.w3.org/1999/xlink" x="0px" y="0px"
	 width="125px" height="125px" viewBox="0 0 125 125" enable-background="new 0 0 125 125" xml:space="preserve">
<g>
	<path fill="none" d="M34.25,64.972"/>
	<circle fill="none" stroke="#0A579D" stroke-width="24" stroke-miterlimit="10" cx="62.75" cy="62.024" r="49.5"/>
	<path fill="none" d="M105.276,61.526c0,23.566-19.187,42.666-42.853,42.666c-23.667,0-42.854-19.1-42.854-42.666
		c0-23.563,19.187-42.666,42.854-42.666S105.276,37.962,105.276,61.526z"/>
	
		<text transform="matrix(0.4743 -0.8853 0.8815 0.4723 21.1646 47.8638)" fill="#FFFFFF" font-family="'Helvetica-Bold'" font-size="20.0022">C</text>
	
		<text transform="matrix(0.7366 -0.6827 0.6798 0.7334 27.917 35.2207)" fill="#FFFFFF" font-family="'Helvetica-Bold'" font-size="20">A</text>
	
		<text transform="matrix(0.9133 -0.4178 0.416 0.9094 38.4619 25.5229)" fill="#FFFFFF" font-family="'Helvetica-Bold'" font-size="20.0012">P</text>
	
		<text transform="matrix(0.997 -0.1214 0.1209 0.9927 50.5195 19.9868)" fill="#FFFFFF" font-family="'Helvetica-Bold'" font-size="20.0014">S</text>
	
		<text transform="matrix(0.9898 0.1705 -0.1697 0.9855 63.7344 18.4443)" fill="#FFFFFF" font-family="'Helvetica-Bold'" font-size="20">T</text>
	
		<text transform="matrix(0.8859 0.4731 -0.4711 0.8821 75.7627 20.2217)" fill="#FFFFFF" font-family="'Helvetica-Bold'" font-size="20">O</text>
	
		<text transform="matrix(0.676 0.7428 -0.7396 0.6731 89.3047 27.5234)" fill="#FFFFFF" font-family="'Helvetica-Bold'" font-size="20.0014">N</text>
	
		<text transform="matrix(0.4082 0.9177 -0.9137 0.4064 98.9004 38.1431)" fill="#FFFFFF" font-family="'Helvetica-Bold'" font-size="20">E</text>
	<polygon fill="#0A579D" points="62.75,18.86 73.395,48.481 103.67,48.591 78.21,67.534 88.04,96.696 62.75,79.399 37.46,96.696 
		46.29,67.534 21.83,48.591 52.105,48.481 	"/>
	<path fill="none" d="M14.25,71.975c0,22.965,24.898,41.549,55.667,41.549"/>
	<ellipse fill="none" cx="62.917" cy="65.748" rx="55.667" ry="53.224"/>
	
		<text transform="matrix(0.5603 0.8832 -0.8444 0.5357 11.5483 87.4219)" fill="#FFFFFF" font-family="'Helvetica-Bold'" font-size="20">E</text>
	
		<text transform="matrix(0.8045 0.6683 -0.639 0.7692 21.5088 101.8584)" fill="#FFFFFF" font-family="'Helvetica-Bold'" font-size="20">L</text>
	
		<text transform="matrix(0.9661 0.4007 -0.3831 0.9237 34.3379 111.9248)" fill="#FFFFFF" font-family="'Helvetica-Bold'" font-size="20">E</text>
	
		<text transform="matrix(1.0427 0.0814 -0.0778 0.997 50.7959 118.2061)" fill="#FFFFFF" font-family="'Helvetica-Bold'" font-size="20.0012">C</text>
	
		<text transform="matrix(1.021 -0.2269 0.217 0.9762 69.3359 118.9746)" fill="#FFFFFF" font-family="'Helvetica-Bold'" font-size="20">T</text>
	
		<text transform="matrix(0.9044 -0.5254 0.5023 0.8647 85.25 115.0586)" fill="#FFFFFF" font-family="'Helvetica-Bold'" font-size="20">R</text>
	
		<text transform="matrix(0.7527 -0.7262 0.6943 0.7197 100.3633 105.2305)" fill="#FFFFFF" font-family="'Helvetica-Bold'" font-size="20">I</text>
	
		<text transform="matrix(0.549 -0.8902 0.8511 0.5249 106.9346 99.1729)" fill="#FFFFFF" font-family="'Helvetica-Bold'" font-size="19.9978">C</text>
	<circle fill="#FFFFFF" cx="13.25" cy="62.859" r="3.667"/>
	<circle fill="#FFFFFF" cx="112.25" cy="62.859" r="3.667"/>
</g>
</svg>
